<?xml version="1.0" encoding="UTF-8"?>
<svg width="109px" height="31px" viewBox="0 0 109 31" version="1.1" xmlns="http://www.w3.org/2000/svg" xmlns:xlink="http://www.w3.org/1999/xlink">
    <!-- Generator: Sketch 48.1 (47250) - http://www.bohemiancoding.com/sketch -->
    <title>Page 1</title>
    <desc>Created with Sketch.</desc>
    <defs>
        <polygon id="path-1" points="8.31029502e-06 30.965708 27.3890538 30.965708 27.3890538 0.0281880531 8.31029502e-06 0.0281880531 8.31029502e-06 30.965708"></polygon>
        <polygon id="path-3" points="7.67882948 26.1301743 7.67882948 0.0264254425 0.00224720617 0.0264254425 0.00224720617 26.1301743 7.67882948 26.1301743"></polygon>
    </defs>
    <g id="global-nav-/-cd-active" stroke="none" stroke-width="1" fill="none" fill-rule="evenodd" transform="translate(-665.000000, -12.000000)">
        <g id="Global-Nav-/-CD-Active">
            <g id="Page-1" transform="translate(665.000000, 12.000000)">
                <g id="Group-3" transform="translate(0.000000, 0.006104)">
                    <mask id="mask-2" fill="white">
                        <use xlink:href="#path-1"></use>
                    </mask>
                    <g id="Clip-2"></g>
                    <path d="M22.2445268,18.8460248 L14.2059343,23.3928058 C13.8891202,23.5720159 13.4987644,23.5720159 13.1819154,23.3928058 L5.14335787,18.8460248 C4.8265088,18.6668146 4.63133089,18.3356221 4.63133089,17.9772361 L4.63133089,8.88363982 C4.63133089,8.52525376 4.8265088,8.19406128 5.14335787,8.01485111 L13.1819154,3.46807013 C13.4987644,3.28885996 13.8891202,3.28885996 14.2059343,3.46807013 L22.2445268,8.01485111 C22.5613408,8.19406128 22.7565188,8.52525376 22.7565188,8.88363982 L22.7565188,17.9772361 C22.7565188,18.3356221 22.5613408,18.6668146 22.2445268,18.8460248 M27.3890538,13.4444805 C27.3890538,5.86052257 20.9658245,-0.253747345 13.1581832,0.0382150442 C6.08305408,0.302812389 0.241228131,6.05903916 0.00758169557,12.9916885 C-0.161483815,18.0074816 2.51496673,22.3896951 6.54229621,24.82659 L17.4016925,30.9657217 L21.7511915,28.4979296 L17.8119651,26.2760801 C23.3845464,24.5680967 27.3890538,19.5496631 27.3890538,13.4444805" id="Fill-1" fill="#E85424" mask="url(#mask-2)"></path>
                </g>
                <path d="M31.9739319,26.1700628 C32.008025,26.1700628 44.7601149,26.1705429 44.7601149,26.1705429 L44.7601149,8.19698982 L41.0408487,8.19698982 L41.0408487,22.4884699 L33.2307222,22.4884699 L33.239788,8.19698982 L29.5205218,8.19698982 L29.5205218,24.6884069 C29.5205218,24.8205684 29.5748468,24.8532487 29.6406528,24.8918615 C29.7064589,24.93044 31.7989508,26.1107033 31.8545359,26.1388228 C31.910121,26.1669765 31.9398388,26.1700628 31.9739319,26.1700628" id="Fill-4" fill="#E85424"></path>
                <path d="M78.0618691,8.2287031 L80.2804427,9.47833916 C80.3518842,9.51856372 80.3958833,9.5931146 80.3958833,9.67380376 L80.3958833,26.1705704 L76.6766521,26.1705704 L76.6857179,11.841952 L68.8755564,11.841952 L68.8755564,26.1705704 L65.1562901,26.1705704 L65.1562901,8.19698296 C65.1562901,8.19698296 77.8733768,8.19746305 77.9425082,8.19746305 C78.0116045,8.19746305 78.0618691,8.2287031 78.0618691,8.2287031" id="Fill-6" fill="#E85424"></path>
                <g id="Group-10" transform="translate(101.299294, 0.040396)">
                    <mask id="mask-4" fill="white">
                        <use xlink:href="#path-3"></use>
                    </mask>
                    <g id="Clip-9"></g>
                    <path d="M0.00224720617,0.0264254425 L3.72119839,0.0264254425 L3.72119839,22.4475184 L7.67883648,22.4475184 L7.67883648,26.1301743 C7.67883648,26.1301743 2.48975042,26.1293856 2.45565729,26.1293856 C2.42156416,26.1293856 2.39188144,26.1250648 2.33626134,26.0969454 C2.28067624,26.0688259 0.188184265,24.8885626 0.122378227,24.8499498 C0.0565721901,24.8113369 0.00224720617,24.7786909 0.00224720617,24.6465294 L0.00224720617,0.0264254425 Z" id="Fill-8" fill="#E85424" mask="url(#mask-4)"></path>
                </g>
                <path d="M59.9766794,8.23446416 C59.9766794,8.23446416 62.1414881,9.4562208 62.1915776,9.48550619 C62.2416322,9.51482588 62.3075433,9.60175619 62.3075433,9.68902942 L62.3075433,26.1705704 C62.3075433,26.1705704 50.0694405,26.1703303 50.0330722,26.1703303 C49.9989791,26.1703303 49.9692613,26.167244 49.9136762,26.1391246 C49.8580911,26.1109708 47.7655992,24.9307418 47.6997931,24.892129 C47.6339871,24.8535162 47.5796621,24.8208358 47.5796621,24.6887086 L47.5796621,16.1488259 C47.5796621,16.0815106 47.6119701,15.9960206 47.6971679,15.9487662 C47.7824007,15.9014774 49.9123461,14.6979642 49.9461592,14.679035 C49.9799373,14.6601058 50.0129453,14.6472805 50.0664653,14.6472805 C50.1199502,14.6472805 58.5882771,14.646869 58.5882771,14.646869 L58.5882771,11.843015 L49.9524248,11.8417805 L49.9524248,8.19893761 L59.8574235,8.19893761 C59.9205693,8.19893761 59.9766794,8.23446416 59.9766794,8.23446416 L59.9766794,8.23446416 Z M58.5882771,22.4894918 L58.5882771,18.2234254 L51.3031637,18.2261002 L51.3031637,22.4894918 L58.5882771,22.4894918 Z" id="Fill-11" fill="#E85424"></path>
                <path d="M85.6962445,26.1705566 C85.6621514,26.1705566 85.6324337,26.1662358 85.5768836,26.1381164 C85.5212635,26.1099626 83.4287715,24.9297336 83.3629655,24.8911208 C83.2971594,24.852508 83.2428345,24.8198277 83.2428345,24.6876662 C83.2428345,24.6876662 83.2437095,9.68726681 83.2437095,9.67341283 C83.2437095,9.60688628 83.2901588,9.51728119 83.3596402,9.47777677 C83.4291215,9.43827235 85.5391851,8.24827013 85.5791588,8.22683761 C85.6190975,8.20540509 85.657321,8.19590619 85.6981347,8.19590619 C85.7389835,8.19590619 94.7316935,8.19806659 94.7316935,8.19806659 L94.7316935,0.0668077434 L98.4907233,0.0668077434 L98.4907233,26.1705566 L85.6962445,26.1705566 Z M86.998294,22.4883465 L94.7316935,22.4883465 L94.7316935,11.8407381 L86.998294,11.8407381 L86.998294,22.4883465 Z" id="Fill-13" fill="#E85424"></path>
            </g>
        </g>
    </g>
</svg>